<svg id="Laag_1" data-name="Laag 1" xmlns="http://www.w3.org/2000/svg" viewBox="0 0 250 100"><defs><style>.cls-1{fill:#b6182a;}.cls-2{fill:#fff;}</style></defs><path class="cls-1" d="M37.79,63.85a14.66,14.66,0,0,1-2.48-4.23l.66-.25a13.47,13.47,0,0,0,2.36,4Zm22.12,0-.53-.45a14.06,14.06,0,0,0,2.32-4l.66.25A14.39,14.39,0,0,1,59.91,63.81Zm-1.07-1.05-.54-.44a12.29,12.29,0,0,0,1.91-3.21l.65.27A12.63,12.63,0,0,1,58.84,62.76Zm-20,0a13.29,13.29,0,0,1-2-3.4l.66-.26a12.25,12.25,0,0,0,1.9,3.21Zm19-1-.54-.45a10.58,10.58,0,0,0,1.63-2.82l.66.26A11.66,11.66,0,0,1,57.77,61.71Zm-17.89,0a11.35,11.35,0,0,1-1.72-3l.65-.26a10.93,10.93,0,0,0,1.62,2.81Zm16.59-.74-.54-.45a9.29,9.29,0,0,0,1.57-2.66l.66.25A10,10,0,0,1,56.47,60.93Zm-15.34-.1a9.87,9.87,0,0,1-1.57-2.65l.66-.26a9.17,9.17,0,0,0,1.45,2.47Zm14.08-.72-.53-.47a7.56,7.56,0,0,0,1.45-2.44l.66.25A8.56,8.56,0,0,1,55.21,60.11Zm-12.79-.06a8.56,8.56,0,0,1-1.54-2.6l.66-.25A7.9,7.9,0,0,0,43,59.59Zm11.33-.57-.5-.5a6.18,6.18,0,0,0,1.64-2.8l.68.19A7,7,0,0,1,53.75,59.48Zm-9.85,0a7.06,7.06,0,0,1-1.75-2.94l.67-.2A6.27,6.27,0,0,0,44.4,59Zm8.31-.61-.43-.55a4.81,4.81,0,0,0,1.81-3.23l.7.08A5.48,5.48,0,0,1,52.21,58.84Zm-6.74,0a5.43,5.43,0,0,1-2-3.4l.7-.11a4.79,4.79,0,0,0,1.77,3Zm5.4-8.65a4.83,4.83,0,0,0-3.74-.14l-.25-.66a5.41,5.41,0,0,1,2-.36,5.5,5.5,0,0,1,2.33.52Zm-.25-1.69a6.29,6.29,0,0,0-3.28-.08l-.17-.68a7.06,7.06,0,0,1,3.65.08Zm-.11-1.58a8,8,0,0,0-3.13,0l-.13-.69a8.51,8.51,0,0,1,3.41.05Zm0-1.53a9.37,9.37,0,0,0-3.08,0l-.11-.69a10.21,10.21,0,0,1,3.31,0Zm.15-1.49a11.27,11.27,0,0,0-3.38,0l-.11-.69a11.44,11.44,0,0,1,3.6,0Zm.26-1.47a12.09,12.09,0,0,0-3.89,0l-.11-.7a13.49,13.49,0,0,1,4.11,0Zm.5-1.43a14,14,0,0,0-4.88,0l-.12-.69a14.73,14.73,0,0,1,5.13,0Z"/><path class="cls-1" d="M32.42,72.9,32,72.18c2.51-1.5,3.44-3.37,4.21-6.09C37.35,62,43.71,57.9,48.81,57.9a15.52,15.52,0,0,1,7.68,2.49C59.11,62,61,64.06,61.56,66c.71,2.33,1.58,4.55,4.34,6.13l-.42.72c-3-1.73-4-4.21-4.72-6.6-1.12-3.66-7.26-7.53-11.95-7.53S38.05,62.63,37,66.32C36.34,68.65,35.45,71.08,32.42,72.9Z"/><path class="cls-1" d="M72.61,60.56c-2.55-1.43-4.63-1.31-7.37-.63-4.09,1-10.84-2.46-13.37-6.88a15.52,15.52,0,0,1-1.65-7.9c.11-3.09,1-5.71,2.37-7.2,1.93-2.06,3-3.82,3-6.74h.84c0,3.53-1.62,5.55-3.28,7.31-2.62,2.79-2.93,10-.61,14.11S61.32,60,65,59.12c2.35-.58,4.9-1,8,.71Z"/><path class="cls-1" d="M25.26,60.56l-.41-.73c3.08-1.72,5.64-1.29,8-.71C36.56,60,43,56.71,45.28,52.63s2-11.32-.6-14.11C43,36.76,41.4,34.74,41.4,31.21h.83c0,2.92,1.12,4.68,3.05,6.74,1.4,1.49,2.27,4.11,2.38,7.2A15.73,15.73,0,0,1,46,53.05c-2.23,3.9-7.74,7.06-11.81,7.06a6.48,6.48,0,0,1-1.56-.18C29.9,59.25,27.81,59.13,25.26,60.56Z"/><path class="cls-1" d="M48.94,37.2a5.6,5.6,0,1,0-5.6-5.59,5.59,5.59,0,0,0,5.6,5.59Z"/><path class="cls-2" d="M43.59,31.76v-.19h0A2.68,2.68,0,0,1,49,31.43a1.09,1.09,0,0,0,0,.18,1,1,0,0,0,0,.17,2.68,2.68,0,0,0,5.33.19,5.36,5.36,0,0,1-10.69-.21Z"/><path class="cls-1" d="M45.61,31.67a.66.66,0,1,1,.66.65.66.66,0,0,1-.66-.65Z"/><path class="cls-2" d="M50.82,31.67a.68.68,0,1,1,.67.67.67.67,0,0,1-.67-.67Z"/><path class="cls-1" d="M64.2,62.88A5.59,5.59,0,1,0,72,61.5a5.6,5.6,0,0,0-7.79,1.38Z"/><path class="cls-2" d="M71.72,61.62l.16.1h0a2.68,2.68,0,0,1-3,4.46l-.14-.1-.15-.1a2.68,2.68,0,0,0-3.21,4.26,5.35,5.35,0,0,1,6.3-8.63Z"/><path class="cls-1" d="M70.64,63.33a.66.66,0,1,1-.76,1.07.65.65,0,0,1-.15-.91.65.65,0,0,1,.91-.16Z"/><path class="cls-2" d="M67.65,67.59a.66.66,0,0,1,.16.94.67.67,0,1,1-1.09-.77.66.66,0,0,1,.93-.17Z"/><path class="cls-1" d="M33.59,63.09a5.59,5.59,0,1,0-1.65,7.74,5.6,5.6,0,0,0,1.65-7.74Z"/><path class="cls-2" d="M31.94,70.53l-.16.11h0a2.68,2.68,0,0,1-3-4.42l.15-.09L29,66a2.68,2.68,0,0,0-2.75-4.57,5.35,5.35,0,0,1,5.65,9.07Z"/><path class="cls-1" d="M30.76,68.89A.66.66,0,0,1,30,67.78.67.67,0,0,1,31,68a.66.66,0,0,1-.19.91Z"/><path class="cls-2" d="M27.92,64.52a.67.67,0,1,1,.2-.93.68.68,0,0,1-.2.93Z"/><path class="cls-1" d="M171.65,44.77l-.55,0c-2-.1-4.71,1.15-6.92,2.73l.71,1a3.66,3.66,0,0,1,1.29-.17,13.71,13.71,0,0,1,2.69.32,9.77,9.77,0,0,1,1.48,5.26,8.25,8.25,0,0,1-.62,3.45l1.63.58A21.8,21.8,0,0,0,172.82,50a10.61,10.61,0,0,0-1.17-5.2Zm-7.59,0-1.75.6a9.66,9.66,0,0,1,.5,3.52,22.45,22.45,0,0,1-1.39,7.69l3.67,1.32a20.46,20.46,0,0,0,.31-4.07,31.87,31.87,0,0,0-1.34-9.06Z"/><path class="cls-1" d="M140.51,42.37a23.53,23.53,0,0,1-1.12-5.17l-4.56,2a16.61,16.61,0,0,0,2.76,5.41,11.11,11.11,0,0,0,4.65,3.78l.91-1.51a10.19,10.19,0,0,1-2.64-4.48Zm5.76-4.71a19,19,0,0,1-4,10.2A25.51,25.51,0,0,1,134,55.14l3,4.12A20.88,20.88,0,0,0,144.78,50,33.23,33.23,0,0,0,148,38l-1.7-.36Z"/><path class="cls-1" d="M187.74,42.34H185a5.62,5.62,0,0,1,0,.6c0,1.61-.4,2.54-1.19,2.78a4.3,4.3,0,0,0,1.27.57c1.83,0,2.75-1,2.75-3.16a3.68,3.68,0,0,0-.07-.79ZM185.25,46a5.69,5.69,0,0,0-3.5-1.27l-3.83,1.32a8.53,8.53,0,0,1,3.74.62,3,3,0,0,1,2.13,2.76,5.18,5.18,0,0,1-.45,2.22c-.4.83-3,2-3.76,2v1.78l.41,0A9.7,9.7,0,0,0,185.56,53,5.7,5.7,0,0,0,187,49.18,3.94,3.94,0,0,0,185.25,46Zm-7.79,4.22c0-1,1.45-3.52,1.95-4.46h-.19c-1.09,0-2.32.54-3.68,2.56a5,5,0,0,0-1,3,4.43,4.43,0,0,0,.45,2,11.22,11.22,0,0,0,4.59,5.2l.06-4.89c-.59-.51-2.18-2.52-2.18-3.44Zm8.22,8.5c-.36-.18-.74-.43-1.09-.59-1-.58-1.69-.9-2.65-1.47a3.24,3.24,0,0,1-1.51-2.26s.32-.36.56-.36h-1c-.46.69-.93-1-1.39-.34a5.51,5.51,0,0,0-1,2.08c0,.94.35,1.22,1.83,2.65,1.21.75,2.59,1.67,3.8,2.4s2,1.61,2,2.28a2.73,2.73,0,0,1-1.08,2h.31a2.24,2.24,0,0,0,1.9-1,3.34,3.34,0,0,0,.72-2.1q0-2.48-1.35-3.33Zm-2.12,5.92a4.35,4.35,0,0,1-2.13-1.47,8.26,8.26,0,0,1-1.85-3.16l-2.35,4a11.3,11.3,0,0,0,5.66,1.82,3.91,3.91,0,0,0,2.88-1.11,6,6,0,0,1-1.18.13l-1-.16Z"/><path class="cls-1" d="M158.72,54.58c-.22-1.73-.45-3.45-.67-5.17a4.87,4.87,0,0,0-2.47-3.69L152.44,47a4.9,4.9,0,0,1,2.73,3.76c.26,1.53.52,3.06.77,4.59a3,3,0,0,0,3.17,2.23,4.47,4.47,0,0,0,1.51-.29c-1-.06-1.61-1-1.9-2.75ZM152.66,45a6,6,0,0,0-2.44.64,7,7,0,0,0-2.39,1.66l1.68,1.92a21.46,21.46,0,0,1,6.12-3.5,5.2,5.2,0,0,0-2.44-.72Zm3.19,9.51a4.6,4.6,0,0,1-2.71,1.22,1.86,1.86,0,0,1-1.32-.54,1.6,1.6,0,0,1-.55-1.3c0-.66.49-1.19,1.43-1.61a6.08,6.08,0,0,1,2.28-.47,2.65,2.65,0,0,1,.67.07l0-1.49a6.88,6.88,0,0,0-2.3-.4,7,7,0,0,0-3.67,1.17c-1.4.86-2.12,1.85-2.15,3a2.83,2.83,0,0,0,1.31,2.34,4.1,4.1,0,0,0,2.57,1,12.07,12.07,0,0,0,2.61-.29,4.36,4.36,0,0,0,2.3-1.07l-.52-1.61Z"/><path class="cls-1" d="M99.78,42.37a23.54,23.54,0,0,1-1.13-5.17l-4.55,2a16.39,16.39,0,0,0,2.75,5.41,11.11,11.11,0,0,0,4.65,3.78l.91-1.51a10.09,10.09,0,0,1-2.63-4.48Zm5.75-4.71a19,19,0,0,1-4,10.2,25.44,25.44,0,0,1-8.32,7.28l3,4.12A21,21,0,0,0,104.05,50,33.42,33.42,0,0,0,107.23,38l-1.7-.36Z"/><path class="cls-1" d="M100.18,42.37a23.54,23.54,0,0,1-1.13-5.17l-4.55,2a16.39,16.39,0,0,0,2.75,5.41,11.11,11.11,0,0,0,4.65,3.78l.92-1.51a10,10,0,0,1-2.64-4.48Zm5.75-4.71a19,19,0,0,1-4,10.2,25.44,25.44,0,0,1-8.32,7.28l3,4.12A21,21,0,0,0,104.45,50,33.42,33.42,0,0,0,107.63,38l-1.7-.36Z"/><path class="cls-1" d="M125,45.05l-.56,0c-2-.1-4.7,1.15-6.91,2.73l.71,1a3.66,3.66,0,0,1,1.29-.17,13.44,13.44,0,0,1,2.68.31,9.72,9.72,0,0,1,1.49,5.27,8.42,8.42,0,0,1-.62,3.45l1.63.57a21.71,21.71,0,0,0,1.46-7.92,10.61,10.61,0,0,0-1.17-5.2Zm-7.59,0-1.75.6a9.85,9.85,0,0,1,.5,3.52,22.49,22.49,0,0,1-1.39,7.69l3.67,1.31a20.39,20.39,0,0,0,.31-4.07,32.22,32.22,0,0,0-1.34-9.05Z"/><path class="cls-1" d="M113.18,38.9a1.08,1.08,0,0,0-.88-.4,1.54,1.54,0,0,0-1.23.61,2.05,2.05,0,0,0-.5,1.32,1.45,1.45,0,0,0,.34,1,1.07,1.07,0,0,0,.88.42,1.57,1.57,0,0,0,1.25-.64,2,2,0,0,0,.48-1.32,1.43,1.43,0,0,0-.34-1Zm-2,14a17.26,17.26,0,0,1-.58-4.33,13.86,13.86,0,0,1,.29-2.8l-1.63-.29a39,39,0,0,0-1,8.6,10.26,10.26,0,0,0,1,5.22l3.53-2.37a14.32,14.32,0,0,1-1.61-4Z"/><path class="cls-1" d="M217.89,47.07a7,7,0,0,0-4.46-2l-1.6,1.16c.93-.1,2.48,1,3.06,2.39a8.8,8.8,0,0,1,.67,3.3,6.19,6.19,0,0,1-.86,3,8.53,8.53,0,0,1-2.38,2.26A7.52,7.52,0,0,0,217,55.12a5.61,5.61,0,0,0,2.08-4.27,6,6,0,0,0-1.19-3.78Zm-4.58,8.54a2.23,2.23,0,0,1-2-1.36,5.71,5.71,0,0,1-.56-2.65,7.87,7.87,0,0,1,.77-3.64A17,17,0,0,1,213.43,45,6,6,0,0,0,209,47.17,6.64,6.64,0,0,0,207.2,52a5.37,5.37,0,0,0,1.34,3.64,5.16,5.16,0,0,0,3.93,1.56l1.81-1.54a4,4,0,0,1-.6,0l-.37,0Z"/><path class="cls-1" d="M200.79,42.37a23.54,23.54,0,0,1-1.13-5.17l-4.56,2a16.61,16.61,0,0,0,2.76,5.41,11.11,11.11,0,0,0,4.65,3.78l.91-1.51a10.09,10.09,0,0,1-2.63-4.48Zm5.75-4.71a19,19,0,0,1-4,10.2,25.54,25.54,0,0,1-8.32,7.28l2.95,4.12A20.88,20.88,0,0,0,205.05,50,33.23,33.23,0,0,0,208.24,38l-1.7-.36Z"/><path class="cls-1" d="M228.77,44.7a14.89,14.89,0,0,0-1,5.63,18.28,18.28,0,0,0,1.34,7.16l1.61-.75a16.3,16.3,0,0,1-.36-3.4,13.59,13.59,0,0,1,1.68-7l-3.24-1.6Zm-.69,8.95-3.09.29a10.11,10.11,0,0,1-1.18-5.48,21.37,21.37,0,0,1,.15-2.59l-1.32-1A17.39,17.39,0,0,0,221.15,52a16.66,16.66,0,0,0,.89,5.77c3-.49,5.24-1.27,6.62-2.34l-.58-1.78Z"/></svg>