<?xml version="1.0" encoding="UTF-8" standalone="no"?>
<svg
   xmlns:dc="http://purl.org/dc/elements/1.1/"
   xmlns:cc="http://creativecommons.org/ns#"
   xmlns:rdf="http://www.w3.org/1999/02/22-rdf-syntax-ns#"
   xmlns:svg="http://www.w3.org/2000/svg"
   xmlns="http://www.w3.org/2000/svg"
   xmlns:sodipodi="http://sodipodi.sourceforge.net/DTD/sodipodi-0.dtd"
   xmlns:inkscape="http://www.inkscape.org/namespaces/inkscape"
   version="1.1"
   id="svg2"
   xml:space="preserve"
   width="566.93335"
   height="566.93335"
   viewBox="0 0 566.93335 566.93335"
   sodipodi:docname="logo_rood.eps"><metadata
     id="metadata8"><rdf:RDF><cc:Work
         rdf:about=""><dc:format>image/svg+xml</dc:format><dc:type
           rdf:resource="http://purl.org/dc/dcmitype/StillImage" /></cc:Work></rdf:RDF></metadata><defs
     id="defs6" /><sodipodi:namedview
     pagecolor="#ffffff"
     bordercolor="#666666"
     borderopacity="1"
     objecttolerance="10"
     gridtolerance="10"
     guidetolerance="10"
     inkscape:pageopacity="0"
     inkscape:pageshadow="2"
     inkscape:window-width="640"
     inkscape:window-height="480"
     id="namedview4" /><g
     id="g10"
     inkscape:groupmode="layer"
     inkscape:label="ink_ext_XXXXXX"
     transform="matrix(1.3333333,0,0,-1.3333333,0,566.93333)"><g
       id="g12"
       transform="scale(0.1)"><path
         d="m 1378.66,1823.81 c 32.52,-86.19 79.45,-165.3 137.87,-234.4"
         style="fill:none;stroke:#b6182a;stroke-width:40;stroke-linecap:butt;stroke-linejoin:miter;stroke-miterlimit:4;stroke-dasharray:none;stroke-opacity:1"
         id="path14" /><path
         d="m 2277.34,2895.32 c -47.97,8.95 -97.45,13.63 -148.03,13.63 -46.44,0 -91.97,-3.94 -136.25,-11.52"
         style="fill:none;stroke:#b6182a;stroke-width:40;stroke-linecap:butt;stroke-linejoin:miter;stroke-miterlimit:4;stroke-dasharray:none;stroke-opacity:1"
         id="path16" /><path
         d="m 2743.71,1591.33 c 57.22,68.11 103.32,145.88 135.51,230.5"
         style="fill:none;stroke:#b6182a;stroke-width:40;stroke-linecap:butt;stroke-linejoin:miter;stroke-miterlimit:4;stroke-dasharray:none;stroke-opacity:1"
         id="path18" /><path
         d="m 1463.58,1840.12 c 27.52,-68.6 65.33,-131.96 111.53,-188.17"
         style="fill:none;stroke:#b6182a;stroke-width:40;stroke-linecap:butt;stroke-linejoin:miter;stroke-miterlimit:4;stroke-dasharray:none;stroke-opacity:1"
         id="path20" /><path
         d="m 2248.39,2814.07 c -38.73,6.47 -78.51,9.84 -119.08,9.84 -36.87,0 -73.09,-2.78 -108.46,-8.15"
         style="fill:none;stroke:#b6182a;stroke-width:40;stroke-linecap:butt;stroke-linejoin:miter;stroke-miterlimit:4;stroke-dasharray:none;stroke-opacity:1"
         id="path22" /><path
         d="m 2682.51,1650.72 c 46.21,55.98 84.09,119.08 111.74,187.42"
         style="fill:none;stroke:#b6182a;stroke-width:40;stroke-linecap:butt;stroke-linejoin:miter;stroke-miterlimit:4;stroke-dasharray:none;stroke-opacity:1"
         id="path24" /><path
         d="m 1540.52,1876.87 c 23.37,-59.79 55.6,-115.15 95.05,-164.47"
         style="fill:none;stroke:#b6182a;stroke-width:40;stroke-linecap:butt;stroke-linejoin:miter;stroke-miterlimit:4;stroke-dasharray:none;stroke-opacity:1"
         id="path26" /><path
         d="m 2233.78,2730.28 c -33.98,5.65 -68.88,8.6 -104.47,8.6 -31.94,0 -63.33,-2.38 -94,-6.95"
         style="fill:none;stroke:#b6182a;stroke-width:40;stroke-linecap:butt;stroke-linejoin:miter;stroke-miterlimit:4;stroke-dasharray:none;stroke-opacity:1"
         id="path28" /><path
         d="m 2621.68,1710.69 c 39.96,49.6 72.59,105.37 96.22,165.65"
         style="fill:none;stroke:#b6182a;stroke-width:40;stroke-linecap:butt;stroke-linejoin:miter;stroke-miterlimit:4;stroke-dasharray:none;stroke-opacity:1"
         id="path30" /><path
         d="m 1620.56,1905.76 c 20.99,-53.04 50.03,-102.02 85.62,-145.42"
         style="fill:none;stroke:#b6182a;stroke-width:40;stroke-linecap:butt;stroke-linejoin:miter;stroke-miterlimit:4;stroke-dasharray:none;stroke-opacity:1"
         id="path32" /><path
         d="m 2225.32,2645.44 c -31.17,5.52 -63.25,8.4 -96.01,8.4 -29.02,0 -57.51,-2.26 -85.3,-6.62"
         style="fill:none;stroke:#b6182a;stroke-width:40;stroke-linecap:butt;stroke-linejoin:miter;stroke-miterlimit:4;stroke-dasharray:none;stroke-opacity:1"
         id="path34" /><path
         d="m 2547.96,1754.94 c 39.02,46.37 70.48,99.3 92.47,156.91"
         style="fill:none;stroke:#b6182a;stroke-width:40;stroke-linecap:butt;stroke-linejoin:miter;stroke-miterlimit:4;stroke-dasharray:none;stroke-opacity:1"
         id="path36" /><path
         d="m 1695.74,1947.29 c 19.34,-52.5 47.93,-100.52 83.81,-142.07"
         style="fill:none;stroke:#b6182a;stroke-width:40;stroke-linecap:butt;stroke-linejoin:miter;stroke-miterlimit:4;stroke-dasharray:none;stroke-opacity:1"
         id="path38" /><path
         d="m 2228.55,2558.11 c -31.97,7 -65.17,10.69 -99.24,10.69 -29.54,0 -58.44,-2.78 -86.44,-8.08"
         style="fill:none;stroke:#b6182a;stroke-width:40;stroke-linecap:butt;stroke-linejoin:miter;stroke-miterlimit:4;stroke-dasharray:none;stroke-opacity:1"
         id="path40" /><path
         d="m 2476.54,1802.3 c 37.05,42.21 66.53,91.23 86.32,144.94"
         style="fill:none;stroke:#b6182a;stroke-width:40;stroke-linecap:butt;stroke-linejoin:miter;stroke-miterlimit:4;stroke-dasharray:none;stroke-opacity:1"
         id="path42" /><path
         d="m 1768.11,1999.11 c 18.09,-60.72 51.08,-115.03 94.72,-158.67"
         style="fill:none;stroke:#b6182a;stroke-width:40;stroke-linecap:butt;stroke-linejoin:miter;stroke-miterlimit:4;stroke-dasharray:none;stroke-opacity:1"
         id="path44" /><path
         d="m 2236.1,2468.41 c -33.86,9.99 -69.7,15.35 -106.79,15.35 -31.01,0 -61.14,-3.75 -89.97,-10.81"
         style="fill:none;stroke:#b6182a;stroke-width:40;stroke-linecap:butt;stroke-linejoin:miter;stroke-miterlimit:4;stroke-dasharray:none;stroke-opacity:1"
         id="path46" /><path
         d="m 2394.2,1838.86 c 46.3,45.75 80.81,103.42 98.55,168.03"
         style="fill:none;stroke:#b6182a;stroke-width:40;stroke-linecap:butt;stroke-linejoin:miter;stroke-miterlimit:4;stroke-dasharray:none;stroke-opacity:1"
         id="path48" /><path
         d="m 1841.66,2057.55 c 12.45,-73.1 52.09,-136.94 108.15,-180.73"
         style="fill:none;stroke:#b6182a;stroke-width:40;stroke-linecap:butt;stroke-linejoin:miter;stroke-miterlimit:4;stroke-dasharray:none;stroke-opacity:1"
         id="path50" /><path
         d="m 2253.11,2371.23 c -37.58,17.63 -79.54,27.49 -123.8,27.49 -36.76,0 -71.94,-6.8 -104.34,-19.21"
         style="fill:none;stroke:#b6182a;stroke-width:40;stroke-linecap:butt;stroke-linejoin:miter;stroke-miterlimit:4;stroke-dasharray:none;stroke-opacity:1"
         id="path52" /><path
         d="m 2308.79,1876.8 c 60.19,47.02 101.46,117.13 110.48,197.01"
         style="fill:none;stroke:#b6182a;stroke-width:40;stroke-linecap:butt;stroke-linejoin:miter;stroke-miterlimit:4;stroke-dasharray:none;stroke-opacity:1"
         id="path54" /><path
         d="m 1183.77,1082.23 c 157.85,94.85 209.75,218.46 249.81,360.12 64.13,226.73 423.17,448.49 694.16,448.49 263.75,0 633.05,-219.37 702.11,-444.65 43.15,-140.75 97.74,-270.29 257.61,-361.67"
         style="fill:none;stroke:#b6182a;stroke-width:47.4;stroke-linecap:butt;stroke-linejoin:miter;stroke-miterlimit:4;stroke-dasharray:none;stroke-opacity:1"
         id="path56" /><path
         d="m 3492.59,1783.99 c -160.67,89.97 -293.75,73.69 -436.62,38.19 -228.66,-56.83 -599.35,144.84 -733.82,380.12 -130.88,228.98 -123.68,658.47 37.64,830.21 100.78,107.3 180.01,215.46 180.01,399.6"
         style="fill:none;stroke:#b6182a;stroke-width:47.4;stroke-linecap:butt;stroke-linejoin:miter;stroke-miterlimit:4;stroke-dasharray:none;stroke-opacity:1"
         id="path58" /><path
         d="m 777.133,1783.99 c 160.668,89.97 293.747,73.69 436.617,38.19 228.66,-56.83 599.35,144.84 733.82,380.12 130.88,228.98 123.68,658.47 -37.64,830.21 -100.78,107.3 -180.01,215.46 -180.01,399.6"
         style="fill:none;stroke:#b6182a;stroke-width:47.4;stroke-linecap:butt;stroke-linejoin:miter;stroke-miterlimit:4;stroke-dasharray:none;stroke-opacity:1"
         id="path60" /><path
         d="m 2134.86,3091.4 c 175.67,0 318.08,142.41 318.08,318.08 0,175.67 -142.41,318.08 -318.08,318.08 -175.67,0 -318.08,-142.41 -318.08,-318.08 0,-175.67 142.41,-318.08 318.08,-318.08"
         style="fill:#b6182a;fill-opacity:1;fill-rule:nonzero;stroke:none"
         id="path62" /><path
         d="m 1831.01,3400.68 c -0.12,3.61 -0.21,7.23 -0.21,10.88 v 0.32 c 1.3,82.58 69.01,149.15 152.4,149.15 80.86,0 146.96,-62.55 152.13,-141.59 -0.21,-3.3 -0.36,-6.62 -0.36,-9.98 0,-3.35 0.15,-6.67 0.36,-9.97 5.18,-79.09 71.28,-141.6 152.1,-141.6 77.2,0 140.95,56.99 151.06,130.98 -11.67,-156.51 -143.05,-279.77 -303.45,-279.77 -164.36,0 -298.26,129.51 -304.03,291.58"
         style="fill:#ffffff;fill-opacity:1;fill-rule:nonzero;stroke:none"
         id="path64" /><path
         d="m 1945.96,3405.98 c 0,20.51 16.73,37.14 37.36,37.14 20.64,0 37.37,-16.63 37.37,-37.14 0,-20.53 -16.73,-37.15 -37.37,-37.15 -20.63,0 -37.36,16.62 -37.36,37.15"
         style="fill:#b6182a;fill-opacity:1;fill-rule:nonzero;stroke:none"
         id="path66" /><path
         d="m 2241.93,3405.98 c 0,21.05 17.17,38.12 38.35,38.12 21.19,0 38.37,-17.07 38.37,-38.12 0,-21.07 -17.18,-38.13 -38.37,-38.13 -21.18,0 -38.35,17.06 -38.35,38.13"
         style="fill:#ffffff;fill-opacity:1;fill-rule:nonzero;stroke:none"
         id="path68" /><path
         d="m 3002.64,1631.63 c -100.76,-143.9 -65.79,-342.24 78.11,-443 143.9,-100.76 342.24,-65.79 443,78.11 100.76,143.9 65.79,342.24 -78.11,443 -143.9,100.76 -342.24,65.79 -443,-78.11"
         style="fill:#b6182a;fill-opacity:1;fill-rule:nonzero;stroke:none"
         id="path70" /><path
         d="m 3430.26,1703.13 c 3.03,-1.96 6.05,-3.97 9.04,-6.06 l 0.26,-0.19 c 66.9,-48.43 82.59,-142.08 34.76,-210.39 -46.37,-66.23 -135.52,-84.51 -203.24,-43.4 -2.58,2.07 -5.21,4.09 -7.96,6.02 -2.75,1.92 -5.55,3.7 -8.38,5.42 -67.75,41.12 -156.87,22.83 -203.23,-43.38 -44.28,-63.23 -34.16,-148.14 20.64,-198.86 -121.51,99.33 -147.11,277.65 -55.11,409.04 94.27,134.63 277.15,170.04 413.22,81.8"
         style="fill:#ffffff;fill-opacity:1;fill-rule:nonzero;stroke:none"
         id="path72" /><path
         d="m 3368.67,1605.93 c 16.81,-11.76 20.83,-35 9,-51.9 -11.84,-16.91 -35.06,-21.08 -51.86,-9.31 -16.81,11.77 -20.83,35 -8.99,51.91 11.83,16.9 35.04,21.07 51.85,9.3"
         style="fill:#b6182a;fill-opacity:1;fill-rule:nonzero;stroke:none"
         id="path74" /><path
         d="m 3198.91,1363.49 c 17.25,-12.08 21.38,-35.94 9.23,-53.29 -12.15,-17.35 -35.98,-21.63 -53.23,-9.55 -17.26,12.08 -21.38,35.93 -9.23,53.29 12.15,17.35 35.97,21.63 53.23,9.55"
         style="fill:#ffffff;fill-opacity:1;fill-rule:nonzero;stroke:none"
         id="path76" /><path
         d="m 1262.18,1619.58 c -95.68,147.33 -292.672,189.2 -440,93.53 -147.328,-95.68 -189.203,-292.68 -93.528,-440.01 95.68,-147.32 292.678,-189.2 440.008,-93.52 147.32,95.68 189.2,292.67 93.52,440"
         style="fill:#b6182a;fill-opacity:1;fill-rule:nonzero;stroke:none"
         id="path78" /><path
         d="m 1168.29,1196.31 c -2.96,-2.07 -5.95,-4.12 -9.01,-6.11 l -0.27,-0.17 c -69.97,-43.88 -162.674,-23.35 -208.092,46.58 -44.035,67.82 -27.586,157.32 35.891,204.71 2.882,1.61 5.75,3.3 8.562,5.12 2.813,1.83 5.519,3.76 8.169,5.74 63.51,47.41 79.93,136.89 35.91,204.68 -42.044,64.74 -124.555,87.17 -192.11,55.36 137.609,75.45 312.54,32.39 399.9,-102.13 89.52,-137.84 53.83,-320.67 -78.95,-413.78"
         style="fill:#ffffff;fill-opacity:1;fill-rule:nonzero;stroke:none"
         id="path80" /><path
         d="m 1101.24,1289.83 c -17.2,-11.17 -40.26,-6.2 -51.5,11.1 -11.24,17.31 -6.4,40.4 10.8,51.57 17.21,11.18 40.26,6.2 51.5,-11.11 11.24,-17.3 6.41,-40.39 -10.8,-51.56"
         style="fill:#b6182a;fill-opacity:1;fill-rule:nonzero;stroke:none"
         id="path82" /><path
         d="m 940.043,1538.05 c -17.66,-11.47 -41.328,-6.36 -52.863,11.4 -11.543,17.77 -6.578,41.47 11.082,52.94 17.668,11.47 41.328,6.36 52.867,-11.41 11.539,-17.76 6.582,-41.46 -11.086,-52.93"
         style="fill:#ffffff;fill-opacity:1;fill-rule:nonzero;stroke:none"
         id="path84" /><path
         d="m 2315.1,846.449 -11.53,0.5 c -42.46,2.012 -98.52,-24.039 -144.66,-57.109 l 14.77,-20.551 c 5.68,2.34 14.71,3.512 27.08,3.512 16.05,0 34.77,-2.18 56.17,-6.512 20.73,-33.41 31.09,-70.148 31.09,-110.23 0,-29.059 -4.35,-53.11 -13.04,-72.137 l 34.1,-12.031 c 20.39,52.437 30.6,107.718 30.6,165.839 0,43.09 -8.2,79.329 -24.58,108.719 z m -158.73,0 -36.61,-12.519 c 7.02,-17.379 10.53,-41.93 10.53,-73.649 0,-53.453 -9.7,-107.062 -29.09,-160.832 l 76.73,-27.558 c 4.34,20.371 6.52,48.757 6.52,85.168 0,62.461 -9.36,125.589 -28.08,189.39 v 0"
         style="fill:#b6182a;fill-opacity:1;fill-rule:nonzero;stroke:none"
         id="path86" /><path
         d="m 1663.67,896.66 c -11.7,34.399 -19.55,70.469 -23.57,108.22 l -95.28,-41.079 c 12.04,-41.082 31.26,-78.832 57.67,-113.231 29.09,-38.422 61.51,-64.808 97.29,-79.16 l 19.06,31.559 c -22.07,19.043 -40.46,50.269 -55.17,93.691 z m 120.39,98.699 c -4.35,-72.82 -32.27,-143.961 -83.75,-213.429 -47.48,-64.129 -105.48,-114.91 -174.02,-152.309 l 61.69,-86.18 c 67.2,40.079 122.19,104.879 164.99,194.399 37.78,78.82 60.01,162.16 66.7,250.012 l -35.61,7.507"
         style="fill:#b6182a;fill-opacity:1;fill-rule:nonzero;stroke:none"
         id="path88" /><path
         d="m 2651.8,897.371 h -58.17 c 0.33,-3.68 0.5,-7.851 0.5,-12.519 0,-33.743 -8.36,-53.114 -25.08,-58.122 14.37,-8.019 23.24,-12.031 26.58,-12.031 38.45,0 57.67,22.051 57.67,66.141 0,6.34 -0.5,11.851 -1.5,16.531 z m -52.05,-77.422 c -23.41,17.699 -47.81,26.551 -73.22,26.551 l -80.24,-27.551 c 28.41,1.332 54.49,-3.008 78.24,-13.031 29.75,-13.027 44.63,-32.238 44.63,-57.617 0,-17.699 -3.18,-33.242 -9.53,-46.59 -8.36,-17.371 -62.53,-42.16 -78.57,-40.82 v -37.082 l 8.52,-0.5 c 28.41,-2 95.29,26.293 116.69,51.339 20.39,23.723 30.59,50.274 30.59,79.672 0,24.711 -12.37,46.59 -37.11,65.629 z M 2436.76,731.77 c 0,20.039 30.36,73.449 40.73,93.16 h -4.01 c -22.74,0.672 -48.46,-11.301 -76.99,-53.481 -12.38,-15.371 -20.91,-39.519 -20.91,-63.23 0,-15.367 3.17,-29.391 9.53,-42.078 22.46,-42.442 38.23,-72.45 95.98,-108.68 l 1.33,102.289 c -12.37,10.691 -45.66,52.641 -45.66,72.02 z m 172.02,-177.86 c -7.7,3.68 -15.56,8.918 -22.95,12.27 -20.06,12.031 -35.23,18.789 -55.29,30.808 -24.07,17.703 -27.21,29.512 -31.67,47.332 0,0 6.72,7.418 11.75,7.418 l -21.2,0.16 c -9.7,-14.367 -19.39,21.582 -29.09,7.223 -14.37,-22.043 -21.56,-36.57 -21.56,-43.59 0,-19.711 7.43,-25.492 38.29,-55.39 25.4,-15.692 54.15,-34.961 79.56,-50.321 27.75,-17.699 41.62,-33.57 41.62,-47.601 0,-15.028 -7.52,-29.219 -22.56,-42.59 h 6.52 c 15.71,-0.328 28.91,6.519 39.62,20.543 10.03,13.027 15.04,27.726 15.04,44.09 0,34.41 -9.36,57.617 -28.08,69.648 z m -44.43,-123.902 c -15.78,5.031 -24.24,9.66 -44.63,30.711 -17.39,18.371 -30.26,40.41 -38.62,66.133 l -49.14,-82.672 c 42.79,-25.379 82.24,-38.078 118.35,-38.078 25.74,0 43.58,7.808 60.37,23.238 -7.02,-1.668 -18.16,-2.692 -24.85,-2.692 l -21.48,3.36"
         style="fill:#b6182a;fill-opacity:1;fill-rule:nonzero;stroke:none"
         id="path90" /><path
         d="m 2044.66,641.309 c -4.68,36.07 -9.36,72.152 -14.04,108.222 -8.7,41.75 -27.08,64.239 -51.65,77.16 l -65.7,-27.562 c 29.42,-13.027 48.48,-39.25 57.17,-78.66 5.35,-32.071 10.7,-64.129 16.05,-96.199 10.03,-31.059 32.1,-46.59 66.2,-46.59 10.03,0 20.56,2 31.59,6.011 -20.39,1.34 -33.6,20.539 -39.62,57.618 z m -126.9,199.91 c -21.65,-1.289 -30.81,-4.43 -51.04,-13.278 -20.23,-8.863 -36.86,-20.461 -49.89,-34.82 l 35.1,-40.082 c 50.82,42.75 96.89,60.063 128.11,73.141 -16.45,8.718 -32.65,15.09 -51.03,15.09 z m 66.7,-198.91 c -21.4,-17.028 -40.29,-25.547 -56.67,-25.547 -10.37,0 -19.56,3.758 -27.58,11.269 -8.03,7.52 -11.88,16.61 -11.54,27.309 0.33,13.691 10.36,24.879 30.09,33.57 16.05,6.668 31.92,10.02 47.64,10.02 5.35,0 10.03,-0.512 14.05,-1.508 l 1,31.066 c -16.05,5.672 -32.1,8.512 -48.15,8.512 -24.74,0 -50.32,-8.191 -76.72,-24.551 -29.43,-18.031 -44.47,-38.75 -45.14,-62.121 -0.67,-17.707 8.53,-34.07 27.58,-49.098 17.72,-14.031 35.61,-21.05 53.66,-21.05 18.39,0 36.61,2.011 54.67,6.019 23.07,5.012 39.11,12.52 48.14,22.539 l -11.03,33.571"
         style="fill:#b6182a;fill-opacity:1;fill-rule:nonzero;stroke:none"
         id="path92" /><path
         d="m 811.363,896.66 c -11.703,34.399 -19.554,70.469 -23.566,108.22 l -95.285,-41.079 c 12.035,-41.082 31.258,-78.832 57.672,-113.231 29.086,-38.422 61.511,-64.808 97.289,-79.16 l 19.058,31.559 c -22.066,19.043 -40.457,50.269 -55.168,93.691 z m 120.391,98.699 C 927.402,922.539 899.484,851.398 848.004,781.93 800.523,717.801 742.516,667.02 673.984,629.621 l 61.684,-86.18 C 802.867,583.52 857.859,648.32 900.66,737.84 938.438,816.66 960.664,900 967.359,987.852 l -35.605,7.507"
         style="fill:#b6182a;fill-opacity:1;fill-rule:nonzero;stroke:none"
         id="path94" /><path
         d="m 819.758,896.66 c -11.707,34.399 -19.559,70.469 -23.57,108.22 l -95.282,-41.079 c 12.035,-41.082 31.254,-78.832 57.668,-113.231 29.09,-38.422 61.516,-64.808 97.293,-79.16 l 19.055,31.559 c -22.067,19.043 -40.453,50.269 -55.164,93.691 z m 120.387,98.699 C 935.797,922.539 907.879,851.398 856.395,781.93 808.918,717.801 750.91,667.02 682.379,629.621 l 61.684,-86.18 C 811.262,583.52 866.254,648.32 909.051,737.84 946.828,816.66 969.059,900 975.75,987.852 l -35.605,7.507"
         style="fill:#b6182a;fill-opacity:1;fill-rule:nonzero;stroke:none"
         id="path96" /><path
         d="m 1339.83,840.66 -11.54,0.512 c -42.46,1.996 -98.52,-24.051 -144.66,-57.121 l 14.78,-20.539 c 5.68,2.328 14.7,3.5 27.08,3.5 16.05,0 34.76,-2.172 56.16,-6.512 20.73,-33.398 31.1,-70.141 31.1,-110.219 0,-29.062 -4.35,-53.113 -13.04,-72.152 l 34.1,-12.027 c 20.39,52.437 30.59,107.718 30.59,165.839 0,43.09 -8.2,79.329 -24.57,108.719 z m -158.74,0 -36.61,-12.519 c 7.02,-17.371 10.53,-41.922 10.53,-73.653 0,-53.449 -9.7,-107.058 -29.08,-160.828 l 76.73,-27.558 c 4.34,20.367 6.51,48.769 6.51,85.179 0,62.449 -9.36,125.578 -28.08,189.379 v 0"
         style="fill:#b6182a;fill-opacity:1;fill-rule:nonzero;stroke:none"
         id="path98" /><path
         d="m 1091.85,969.309 c -4.68,5.679 -10.87,8.519 -18.55,8.519 -10.03,0 -18.56,-4.258 -25.58,-12.777 -7.02,-8.52 -10.53,-17.781 -10.53,-27.801 0,-7.691 2.33,-14.461 7.02,-20.301 4.68,-5.84 10.86,-8.758 18.55,-8.758 10.03,0 18.72,4.508 26.08,13.52 6.69,8.019 10.03,17.199 10.03,27.559 0,7.679 -2.34,14.359 -7.02,20.039 z m -42.12,-292.098 c -8.03,30.73 -12.04,60.957 -12.04,90.687 0,19.704 2.01,39.243 6.02,58.622 l -34.1,6.011 C 995.227,769.73 988.043,709.781 988.043,652.66 c 0,-49.769 7.184,-86.172 21.567,-109.219 l 73.72,49.598 c -14.38,23.723 -25.58,51.77 -33.6,84.172 v 0"
         style="fill:#b6182a;fill-opacity:1;fill-rule:nonzero;stroke:none"
         id="path100" /><path
         d="m 3282.53,798.41 c -18.06,22.371 -61.08,41.121 -93.31,42.789 l -33.31,-24.39 c 19.39,2.011 51.89,-20.239 63.93,-49.969 9.36,-23.379 14.04,-46.43 14.04,-69.141 0,-21.039 -6.02,-42.258 -18.05,-63.629 -11.37,-20.039 -32.4,-33.75 -49.78,-47.101 38.27,1.34 72.17,19.711 97.92,43.09 29.09,26.062 43.63,55.781 43.63,89.191 0,31.391 -8.36,57.781 -25.07,79.16 z m -95.66,-178.57 c -20.96,1.801 -32.96,9.551 -42.65,28.262 -7.7,15.027 -11.54,33.566 -11.54,55.609 0,30.07 5.35,55.449 16.05,76.16 6.02,11.02 16.08,30.938 40.49,61.328 -41.63,-1.34 -68.57,-19.418 -92.64,-44.801 -25.08,-26.046 -37.61,-59.617 -37.61,-100.699 0,-29.398 9.35,-54.789 28.08,-76.16 20.06,-22.719 53.03,-33.57 82.11,-32.559 l 37.85,32.188 c -3.68,-0.68 -9.08,0 -12.42,0 l -7.72,0.672"
         style="fill:#b6182a;fill-opacity:1;fill-rule:nonzero;stroke:none"
         id="path102" /><path
         d="m 2924.74,896.66 c -11.71,34.399 -19.56,70.469 -23.57,108.22 l -95.28,-41.079 c 12.03,-41.082 31.25,-78.832 57.67,-113.231 29.08,-38.422 61.51,-64.808 97.29,-79.16 l 19.05,31.559 c -22.06,19.043 -40.45,50.269 -55.16,93.691 z m 120.39,98.699 c -4.35,-72.82 -32.27,-143.961 -83.75,-213.429 -47.48,-64.129 -105.49,-114.91 -174.02,-152.309 l 61.68,-86.18 c 67.2,40.079 122.19,104.879 164.99,194.399 37.78,78.82 60.01,162.16 66.7,250.012 l -35.6,7.507"
         style="fill:#b6182a;fill-opacity:1;fill-rule:nonzero;stroke:none"
         id="path104" /><path
         d="m 3510.28,848.051 c -14.38,-35.75 -21.56,-74.992 -21.56,-117.742 0,-55.789 9.35,-105.719 28.08,-149.809 l 33.6,15.531 c -5.01,23.719 -7.52,47.43 -7.52,71.149 0,58.781 11.7,107.879 35.1,147.3 z m -14.44,-187.391 -64.69,-6.012 c -16.38,24.723 -24.57,62.961 -24.57,114.743 0,19.039 1,37.07 3.01,54.109 L 3382,845.039 c -20.73,-46.43 -31.09,-96.367 -31.09,-149.801 0,-47.097 6.18,-87.347 18.56,-120.75 63.51,10.352 109.65,26.723 138.41,49.102 l -12.04,37.07"
         style="fill:#b6182a;fill-opacity:1;fill-rule:nonzero;stroke:none"
         id="path106" /></g></g></svg>
